<svg xmlns="http://www.w3.org/2000/svg" width="469.4" height="715.7" viewBox="0 0 469.4 715.7">
  <g id="lighty" transform="translate(-165.3 -36.3)">
    <path id="Path_1" data-name="Path 1" d="M566.4,437.3h0c44.8-44.8,68.3-103.5,68.3-166.4s-24.5-121.6-68.3-166.4C521.6,59.7,462.9,36.3,400,36.3S278.4,60.8,233.6,104.6c-44.8,44.8-68.3,103.5-68.3,166.4s24.5,121.6,68.3,166.4h0a169.443,169.443,0,0,1,50.1,120.5,31.469,31.469,0,0,0,32,32H483.2c8.5,0,17.1-3.2,22.4-9.6,6.4-6.4,9.6-13.9,9.6-22.4,1.1-44.8,18.1-87.5,51.2-120.6Zm-45.9-44.8a230.1,230.1,0,0,0-66.1,134.4h-16l40.5-195.2A32.209,32.209,0,1,0,416,317.8l-18.1,87.5-20.3-88.5a31.834,31.834,0,1,0-61.9,14.9l44.8,194.1H345.6c-6.4-50.1-29.9-97.1-66.1-134.4h0a170.056,170.056,0,1,1,241,1.1Z" fill="#fff"/>
    <path id="Path_2" data-name="Path 2" d="M522.7,640a31.469,31.469,0,0,0-32-32H309.3a32,32,0,1,0,0,64H490.6A32.113,32.113,0,0,0,522.7,640Z" fill="#fff"/>
    <path id="Path_3" data-name="Path 3" d="M464,688H330.7a32,32,0,0,0,0,64H464a32,32,0,0,0,0-64Z" fill="#fff"/>
  </g>
</svg>
